# xmcd
#
# Track frame offsets:
#	183
#	17623
#	42603
#	61478
#	86793
#	100608
#	115410
#	138845
#	160128
#	184790
#	209135
#
# Disc length: 3069 seconds
#
# Revision: 1
# Processed by: cddbd v1.4PL0 Copyright (c) Steve Scherf et al.
# Submitted via: audiograbber 1.81.03
#
DISCID=9a0bfb0b
DTITLE=Luther Johnson Jr - Luther's Blues
DYEAR=1992
DGENRE=Blues
TTITLE0=Little Queenie
TTITLE1=Luther's Blues
TTITLE2=Come Baby
TTITLE3=Back at the Chicken Shack
TTITLE4=Better Watch Yourself
TTITLE5=Boogin' in the Dark
TTITLE6=Too Many Drivers
TTITLE7=Sweet Home Chicago
TTITLE8=I Can't Stop
TTITLE9=Nobody Wants to Loose
TTITLE10=Mother in Law
EXTD=
EXTT0=
EXTT1=
EXTT2=
EXTT3=
EXTT4=
EXTT5=
EXTT6=
EXTT7=
EXTT8=
EXTT9=
EXTT10=
PLAYORDER=
